<mxfile host="app.diagrams.net" modified="2021-02-13T13:39:24.356Z" agent="5.0 (Windows NT 10.0; Win64; x64) AppleWebKit/537.36 (KHTML, like Gecko) Chrome/88.0.4324.150 Safari/537.36" etag="B7TkczX5u9Ij1wcHco3f" version="14.3.1" type="github">
  <diagram id="7xxPRaCTb07UQARyvsE-" name="Page-1">
    <mxGraphModel dx="1662" dy="1931" grid="1" gridSize="10" guides="1" tooltips="1" connect="1" arrows="1" fold="1" page="1" pageScale="1" pageWidth="827" pageHeight="1169" math="0" shadow="0">
      <root>
        <mxCell id="0" />
        <mxCell id="1" parent="0" />
        <mxCell id="HWTjK2aRKDfF1gV4Asgg-7" style="edgeStyle=orthogonalEdgeStyle;rounded=0;orthogonalLoop=1;jettySize=auto;html=1;entryX=0.5;entryY=0;entryDx=0;entryDy=0;" edge="1" parent="1" source="HWTjK2aRKDfF1gV4Asgg-1" target="HWTjK2aRKDfF1gV4Asgg-2">
          <mxGeometry relative="1" as="geometry" />
        </mxCell>
        <mxCell id="HWTjK2aRKDfF1gV4Asgg-1" value="har 3 naboer (seg selv og to på hver side, eller hjørne)" style="rhombus;whiteSpace=wrap;html=1;" vertex="1" parent="1">
          <mxGeometry x="160" y="110" width="200" height="160" as="geometry" />
        </mxCell>
        <mxCell id="HWTjK2aRKDfF1gV4Asgg-8" style="edgeStyle=orthogonalEdgeStyle;rounded=0;orthogonalLoop=1;jettySize=auto;html=1;entryX=0.5;entryY=0;entryDx=0;entryDy=0;" edge="1" parent="1" source="HWTjK2aRKDfF1gV4Asgg-2" target="HWTjK2aRKDfF1gV4Asgg-3">
          <mxGeometry relative="1" as="geometry" />
        </mxCell>
        <mxCell id="HWTjK2aRKDfF1gV4Asgg-2" value="Legger til punktet" style="rounded=0;whiteSpace=wrap;html=1;" vertex="1" parent="1">
          <mxGeometry x="414" y="270" width="120" height="60" as="geometry" />
        </mxCell>
        <mxCell id="HWTjK2aRKDfF1gV4Asgg-4" style="edgeStyle=orthogonalEdgeStyle;rounded=0;orthogonalLoop=1;jettySize=auto;html=1;entryX=0;entryY=0.5;entryDx=0;entryDy=0;" edge="1" parent="1" source="HWTjK2aRKDfF1gV4Asgg-3" target="HWTjK2aRKDfF1gV4Asgg-1">
          <mxGeometry relative="1" as="geometry" />
        </mxCell>
        <mxCell id="HWTjK2aRKDfF1gV4Asgg-5" style="edgeStyle=orthogonalEdgeStyle;rounded=0;orthogonalLoop=1;jettySize=auto;html=1;" edge="1" parent="1" source="HWTjK2aRKDfF1gV4Asgg-3">
          <mxGeometry relative="1" as="geometry">
            <mxPoint x="520" y="640" as="targetPoint" />
          </mxGeometry>
        </mxCell>
        <mxCell id="HWTjK2aRKDfF1gV4Asgg-3" value="Ligger begge naboene på linje?" style="rhombus;whiteSpace=wrap;html=1;" vertex="1" parent="1">
          <mxGeometry x="440" y="410" width="140" height="120" as="geometry" />
        </mxCell>
        <mxCell id="HWTjK2aRKDfF1gV4Asgg-6" value="Nei" style="text;html=1;align=center;verticalAlign=middle;resizable=0;points=[];autosize=1;" vertex="1" parent="1">
          <mxGeometry x="415" y="580" width="30" height="20" as="geometry" />
        </mxCell>
        <mxCell id="HWTjK2aRKDfF1gV4Asgg-9" value="Ja" style="text;html=1;align=center;verticalAlign=middle;resizable=0;points=[];autosize=1;" vertex="1" parent="1">
          <mxGeometry x="384" y="420" width="30" height="20" as="geometry" />
        </mxCell>
        <mxCell id="HWTjK2aRKDfF1gV4Asgg-11" style="edgeStyle=orthogonalEdgeStyle;rounded=0;orthogonalLoop=1;jettySize=auto;html=1;entryX=0.5;entryY=0;entryDx=0;entryDy=0;" edge="1" parent="1" source="HWTjK2aRKDfF1gV4Asgg-10" target="HWTjK2aRKDfF1gV4Asgg-1">
          <mxGeometry relative="1" as="geometry" />
        </mxCell>
        <mxCell id="HWTjK2aRKDfF1gV4Asgg-10" value="Tar inn et punkt" style="rounded=1;whiteSpace=wrap;html=1;" vertex="1" parent="1">
          <mxGeometry x="200" y="-20" width="120" height="60" as="geometry" />
        </mxCell>
      </root>
    </mxGraphModel>
  </diagram>
</mxfile>
